# xmcd CD database file
#
# Track frame offsets:
#	150
#	16511
#	32211
#	45521
#	69955
#	82859
#	108596
#	121812
#	135057
#	156158
#	170886
#
# Disc length: 2497 seconds
#
# Revision: 1
# Processed by: cddbd v1.5PL3 Copyright (c) Steve Scherf et al.
# Submitted via: CDex 1.51
#
DISCID=7a09bf0b
DTITLE=Sweet Mama Cotton and the Sugar Daddies - Expect Delays
DYEAR=1997
DGENRE=Blues
TTITLE0=Voodoo Daddy
TTITLE1=She Loves to Drive
TTITLE2=Woman on My Mind
TTITLE3=Make Up My Mind
TTITLE4=Sometimes
TTITLE5=Since You've Been Gone
TTITLE6=Cloudy Texas Skies
TTITLE7=Don't Want No Man
TTITLE8=Having a Good Time
TTITLE9=Unchain My Heart
TTITLE10=Expect Delays
EXTD=YEAR: 1997
EXTT0=
EXTT1=
EXTT2=
EXTT3=
EXTT4=
EXTT5=
EXTT6=
EXTT7=
EXTT8=
EXTT9=
EXTT10=
PLAYORDER=
